<svg xmlns="http://www.w3.org/2000/svg" xml:space="preserve" width="1.99999in" height="1.99999in" version="1.1" style="shape-rendering:geometricPrecision; text-rendering:geometricPrecision; image-rendering:optimizeQuality; fill-rule:evenodd; clip-rule:evenodd" viewBox="0 0 2000 2000" xmlns:xlink="http://www.w3.org/1999/xlink">
 <defs>
  <style type="text/css">
   
    .fil0 {fill:#666666}
    .fil1 {fill:#E6F7DB}
   
  </style>
 </defs>
 <g id="Layer_x0020_1">
  <metadata id="CorelCorpID_0Corel-Layer"></metadata>
  <path class="fil0" d="M1326 1853l-120 0c-12,0 -21,-8 -23,-19l-21 -130c-28,-11 -54,-26 -77,-45l-123 47c-11,4 -23,0 -28,-10l-60 -104c-6,-9 -4,-22 5,-29l102 -83c-1,-7 -2,-14 -3,-22l-616 0c-12,0 -23,-10 -23,-23l0 -1265c0,-13 11,-23 23,-23l719 0c8,0 15,4 19,11l180 183c7,6 9,11 8,21l0 655c27,0 56,-5 60,20l21 130c28,10 54,25 77,44l124 -47c10,-4 22,1 28,10l60 104c5,10 3,22 -6,30l-102 83c5,29 5,59 0,89l102 83c9,7 11,20 6,29l-60 104c-6,10 -18,14 -28,10l-124 -47c-23,19 -49,34 -77,45l-21 130c-2,11 -11,19 -22,19zm-348 -441c1,-7 2,-14 3,-21l-102 -83c-9,-8 -11,-20 -5,-30l60 -104c5,-9 17,-14 28,-10l123 47c23,-19 49,-34 77,-44l21 -130c4,-25 33,-20 60,-20l0 -635 -163 0c-13,0 -23,-11 -23,-23l0 -166 -672 0 0 1219 593 0zm288 -349l-41 0 -20 124c-4,28 -40,13 -101,68 -6,5 -15,7 -23,4l-118 -45 -40 70 97 80c21,17 -8,43 8,121 2,8 -1,17 -8,22l-97 79 40 70 118 -44c26,-10 31,28 109,53 8,3 14,10 15,18l20 125 81 0 20 -125c5,-27 39,-12 101,-67 6,-6 15,-7 23,-4l118 45 40 -71 -97 -79c-21,-17 8,-43 -8,-121 -2,-8 1,-17 8,-22l97 -80 -40 -70 -118 45c-26,10 -31,-28 -108,-54 -9,-2 -15,-9 -16,-18l-20 -124 -40 0zm-310 -733l-284 0c-30,0 -30,-46 0,-46l284 0c30,0 30,46 0,46zm170 137l-624 0c-31,0 -31,-46 0,-46l624 0c30,0 30,46 0,46zm0 137l-624 0c-31,0 -31,-46 0,-46l624 0c30,0 30,46 0,46zm0 136l-624 0c-31,0 -31,-46 0,-46l624 0c30,0 30,46 0,46zm0 137l-624 0c-31,0 -31,-46 0,-46l624 0c30,0 30,46 0,46zm0 136l-624 0c-31,0 -31,-45 0,-45l624 0c30,0 30,45 0,45zm-244 137l-380 0c-31,0 -31,-46 0,-46l380 0c30,0 30,46 0,46zm-68 137l-312 0c-31,0 -31,-46 0,-46l312 0c30,0 30,46 0,46zm452 315c-93,0 -168,-75 -168,-167 0,-92 75,-167 168,-167 92,0 167,75 167,167 0,92 -75,167 -167,167zm0 -288c-67,0 -122,54 -122,121 0,67 55,122 122,122 66,0 121,-55 121,-122 0,-67 -55,-121 -121,-121zm-55 -978l-108 -110 0 110 108 0z" id="id_103" style="fill: rgb(255, 255, 255);"></path>
  <polygon class="fil1" points="1103,336 1211,336 1103,226 " id="id_104" style="fill: rgb(255, 255, 255);"></polygon>
 </g>
</svg>